<svg width="1440" height="1080" viewBox="0 0 1440 1080" fill="none" xmlns="http://www.w3.org/2000/svg">
  <defs>
    <linearGradient id="crm-bg" x1="132" y1="92" x2="1300" y2="996" gradientUnits="userSpaceOnUse">
      <stop stop-color="#0B1D3A" />
      <stop offset="1" stop-color="#07111F" />
    </linearGradient>
    <linearGradient id="crm-panel" x1="252" y1="216" x2="1084" y2="792" gradientUnits="userSpaceOnUse">
      <stop stop-color="#14294D" />
      <stop offset="1" stop-color="#0D1830" />
    </linearGradient>
    <linearGradient id="crm-accent" x1="1002" y1="250" x2="1138" y2="686" gradientUnits="userSpaceOnUse">
      <stop stop-color="#60A5FA" />
      <stop offset="1" stop-color="#22D3EE" />
    </linearGradient>
    <filter id="crm-blur" x="0" y="0" width="1440" height="1080" filterUnits="userSpaceOnUse" color-interpolation-filters="sRGB">
      <feGaussianBlur stdDeviation="60" />
    </filter>
  </defs>
  <rect width="1440" height="1080" rx="72" fill="url(#crm-bg)" />
  <g filter="url(#crm-blur)" opacity="0.35">
    <circle cx="278" cy="242" r="140" fill="#2563EB" />
    <circle cx="1168" cy="864" r="164" fill="#22D3EE" />
  </g>
  <rect x="112" y="124" width="1216" height="832" rx="48" fill="#0E1629" fill-opacity="0.84" stroke="white" stroke-opacity="0.08" stroke-width="2" />
  <text x="176" y="212" fill="#93A7CA" font-family="Inter, Arial, sans-serif" font-size="30" font-weight="700" letter-spacing="8">CRM DE METAS</text>
  <text x="176" y="256" fill="#EFF6FF" font-family="Inter, Arial, sans-serif" font-size="82" font-weight="700">Dashboard Multi-tenant</text>
  <text x="176" y="308" fill="#93A7CA" font-family="Inter, Arial, sans-serif" font-size="28">Cálculo por intervalo, metas dinâmicas e leitura por operação.</text>
  <rect x="176" y="372" width="252" height="148" rx="28" fill="#111F39" stroke="white" stroke-opacity="0.08" />
  <rect x="450" y="372" width="252" height="148" rx="28" fill="#111F39" stroke="white" stroke-opacity="0.08" />
  <rect x="724" y="372" width="252" height="148" rx="28" fill="#111F39" stroke="white" stroke-opacity="0.08" />
  <text x="212" y="424" fill="#93A7CA" font-family="Inter, Arial, sans-serif" font-size="22" font-weight="700" letter-spacing="4">TENANTS</text>
  <text x="212" y="484" fill="#F8FAFC" font-family="Inter, Arial, sans-serif" font-size="60" font-weight="700">12</text>
  <text x="486" y="424" fill="#93A7CA" font-family="Inter, Arial, sans-serif" font-size="22" font-weight="700" letter-spacing="4">META GLOBAL</text>
  <text x="486" y="484" fill="#F8FAFC" font-family="Inter, Arial, sans-serif" font-size="60" font-weight="700">84%</text>
  <text x="760" y="424" fill="#93A7CA" font-family="Inter, Arial, sans-serif" font-size="22" font-weight="700" letter-spacing="4">INTERVALOS</text>
  <text x="760" y="484" fill="#F8FAFC" font-family="Inter, Arial, sans-serif" font-size="60" font-weight="700">7</text>
  <rect x="176" y="560" width="800" height="300" rx="32" fill="url(#crm-panel)" stroke="white" stroke-opacity="0.08" />
  <path d="M238 768C318 710 402 704 484 648C566 592 614 610 686 570C758 530 850 518 918 466" stroke="#7DD3FC" stroke-width="10" stroke-linecap="round" />
  <circle cx="484" cy="648" r="14" fill="#BAE6FD" />
  <circle cx="686" cy="570" r="14" fill="#BAE6FD" />
  <circle cx="918" cy="466" r="14" fill="#BAE6FD" />
  <rect x="1020" y="372" width="216" height="488" rx="36" fill="#0B1426" stroke="white" stroke-opacity="0.08" />
  <rect x="1080" y="470" width="90" height="292" rx="24" fill="url(#crm-accent)" />
  <rect x="1080" y="390" width="90" height="62" rx="20" fill="#111F39" />
  <text x="1080" y="320" fill="#93A7CA" font-family="Inter, Arial, sans-serif" font-size="22" font-weight="700" letter-spacing="4">MÉTRICAS</text>
  <text x="1087" y="430" fill="#E2E8F0" font-family="Inter, Arial, sans-serif" font-size="26" font-weight="700">Taxa atual</text>
  <text x="1089" y="818" fill="#E0F2FE" font-family="Inter, Arial, sans-serif" font-size="28" font-weight="700">+18,6%</text>
</svg>
